<svg xmlns="http://www.w3.org/2000/svg" xmlns:xlink="http://www.w3.org/1999/xlink" width="20" height="12" viewBox="0 0 20 12">
    <defs>
        <path id="ylta8dti2a" d="M0 0.017L19.964 0.017 19.964 5.645 0 5.645z"/>
        <path id="4qmcsn8pgc" d="M0 0.042L19.964 0.042 19.964 5.67 0 5.67z"/>
    </defs>
    <g fill="none" fill-rule="evenodd">
        <g>
            <g>
                <g>
                    <g>
                        <g>
                            <g>
                                <g transform="translate(-386 -722) translate(0 688) translate(35 20) translate(116) translate(15 10) translate(220 4) translate(0 .038)">
                                    <mask id="6mvha5xqyb" fill="#fff">
                                        <use xlink:href="#ylta8dti2a"/>
                                    </mask>
                                    <path fill="#0086D6" d="M6.51 3.994c-.62 0-1.123-.522-1.123-1.163 0-.64.504-1.163 1.123-1.163.62 0 1.123.522 1.123 1.163 0 .64-.504 1.163-1.123 1.163m12.656-1.989H9.11C8.768.855 7.732.017 6.51.017c-1.222 0-2.258.838-2.6 1.988H.798c-.441 0-.798.37-.798.826 0 .456.357.826.798.826H3.91c.342 1.15 1.378 1.988 2.6 1.988 1.222 0 2.258-.838 2.6-1.988h10.056c.44 0 .798-.37.798-.826 0-.456-.357-.826-.798-.826" mask="url(#6mvha5xqyb)"/>
                                </g>
                                <g transform="translate(-386 -722) translate(0 688) translate(35 20) translate(116) translate(15 10) translate(220 4) translate(0 6.313)">
                                    <mask id="bn0c5egmqd" fill="#fff">
                                        <use xlink:href="#4qmcsn8pgc"/>
                                    </mask>
                                    <path fill="#0086D6" d="M13.006 4.018c-.62 0-1.124-.52-1.124-1.162 0-.641.504-1.162 1.124-1.162.619 0 1.123.521 1.123 1.162 0 .641-.504 1.162-1.123 1.162m6.16-1.988h-3.561C15.263.88 14.227.042 13.005.042c-1.221 0-2.257.838-2.599 1.988H.798C.357 2.03 0 2.4 0 2.856c0 .456.357.825.798.825h9.608c.342 1.15 1.378 1.989 2.6 1.989 1.221 0 2.257-.838 2.599-1.989h3.561c.441 0 .798-.369.798-.825 0-.456-.357-.826-.798-.826" mask="url(#bn0c5egmqd)"/>
                                </g>
                            </g>
                        </g>
                    </g>
                </g>
            </g>
        </g>
    </g>
</svg>
