<svg xmlns="http://www.w3.org/2000/svg" xmlns:xlink="http://www.w3.org/1999/xlink" width="37" height="24" viewBox="0 0 37 24">
    <defs>
        <filter id="u09598nbea">
            <feColorMatrix in="SourceGraphic" values="0 0 0 0 0.000000 0 0 0 0 0.525490 0 0 0 0 0.839216 0 0 0 1.000000 0"/>
        </filter>
        <path id="dx8my1tq3b" d="M0 0.144L28.088 0.144 28.088 19.68 0 19.68z"/>
    </defs>
    <g fill="none" fill-rule="evenodd">
        <g>
            <g>
                <g filter="url(#u09598nbea)" transform="translate(-65 -161) translate(35 143) translate(30 18)">
                    <g transform="translate(0 4.182)">
                        <mask id="nkmbv6ltyc" fill="#fff">
                            <use xlink:href="#dx8my1tq3b"/>
                        </mask>
                        <path fill="#3376AE" d="M27.108 12.824c0 .02-.005.043-.01.062l-.172.96c-.74 4.035-2.685 4.798-6.259 4.85-1.777.03-4.337.024-6.392.02h-1.653c-6.027 0-9.701-3.987-11.57-12.552-.23-1.06-.024-1.923.629-2.633C4.16.834 12.661.743 20.317 1.607l.48-.888c0-.01.005-.019.014-.028C15.178.033 4.275-.706.975 2.878.105 3.828-.187 5 .115 6.366c1.95 8.958 6.043 13.309 12.507 13.309h1.653c.648 0 1.35.005 2.06.005 1.537 0 3.122-.005 4.342-.024 3.915-.058 6.345-.998 7.19-5.637l.178-.96.043-.24-.98.005z" mask="url(#nkmbv6ltyc)"/>
                    </g>
                    <path fill="#3376AE" d="M3.852 14.047c-.189 0-.368-.111-.444-.296-.312-.753-.604-1.553-.892-2.444-.274-.848-.215-1.617.177-2.289.615-1.051 2.052-1.815 4.27-2.27.261-.051.514.115.567.374.054.26-.114.514-.374.566-1.913.392-3.168 1.019-3.633 1.814-.252.432-.282.925-.093 1.51.28.867.563 1.642.865 2.372.102.244-.015.525-.26.626-.06.025-.122.037-.183.037"/>
                    <path fill="#3376AE" fill-rule="nonzero" d="M27.537.922c-4.543 0-8.226 3.679-8.226 8.217 0 2.3.952 4.45 2.598 5.993 1.515 1.42 3.51 2.225 5.628 2.225 2.25 0 4.357-.908 5.896-2.487 1.485-1.524 2.33-3.561 2.33-5.731 0-4.538-3.682-8.217-8.226-8.217zm0 .48c4.279 0 7.746 3.464 7.746 7.737 0 2.043-.796 3.96-2.194 5.396-1.45 1.488-3.432 2.342-5.552 2.342-1.995 0-3.872-.758-5.299-2.095-1.55-1.454-2.446-3.476-2.446-5.643 0-4.273 3.468-7.737 7.745-7.737z"/>
                    <path fill="#3376AE" fill-rule="nonzero" d="M27.947 0L27.947 2.323 27.347 2.323 27.347 0zM36.686 8.749L36.686 9.349 34.361 9.349 34.361 8.749zM20.715 8.749L20.715 9.349 18.389 9.349 18.389 8.749z"/>
                    <path fill="#3376AE" d="M24.446 9.182l-.755-1.377-1.518 2.752c-.009.015-.016.031-.023.047-.001.002 0 .005.002.006l.01.007 2.284-1.435m.155.283l-.836.525c-.543.34-1.086.68-1.628 1.023-.044.028-.088.042-.141.04-.149-.002-.298 0-.445 0l-.005-.01c0-.003-.002-.006-.001-.008l2.13-3.867c.005-.006.007-.014.016-.033.72 1.312 1.43 2.607 2.144 3.913h-.366l-.868-1.583M31.13 7.806l-.754 1.377 2.23 1.4c.019.013.039.024.058.035h.007l.006-.01-1.547-2.802m-.91 1.66l-.869 1.585h-.349L29 11.043c0-.003-.002-.006-.001-.008l.01-.027 2.11-3.851.012-.001c.002 0 .006 0 .006.002l2.13 3.852c.006.01.01.022.017.04-.03.001-.055.004-.079.004-.129 0-.257-.002-.386 0-.048.002-.087-.011-.127-.036L30.3 9.516l-.08-.05M29.592 7.153l-2.165 3.923-2.15-3.923.186-.002h.18l1.785 3.257 1.796-3.255h.368zM33.941 11.045h-.054v-.406h.066c.003 0 .004.001.005.002l.116.187.003.003.002-.003.116-.186c.001-.002.003-.003.005-.003h.066v.406h-.054v-.327l-.135.216-.135-.216v.327zM33.833 10.693L33.725 10.693 33.725 11.045 33.67 11.045 33.67 10.693 33.562 10.693 33.562 10.639 33.833 10.639z"/>
                    <path fill="#3376AE" fill-rule="nonzero" d="M23.082 12.792c.153.185.317.358.49.52 1.067 1 2.472 1.567 3.965 1.567 1.586 0 3.07-.639 4.154-1.751.07-.073.138-.145.202-.219l.095-.11.185.154c-.097.115-.2.229-.31.342-1.129 1.159-2.674 1.824-4.326 1.824-1.555 0-3.018-.59-4.129-1.632-.135-.126-.265-.26-.389-.4l-.122-.141.185-.154zM27.538 3.06c1.656 0 3.206.67 4.333 1.832l.12.126-.178.162c-1.09-1.19-2.628-1.88-4.275-1.88-1.585 0-3.067.638-4.15 1.746l-.114.12-.176-.162c1.136-1.23 2.73-1.945 4.44-1.945z"/>
                </g>
            </g>
        </g>
    </g>
</svg>
