<svg xmlns="http://www.w3.org/2000/svg" width="24" height="37" viewBox="0 0 24 37">
    <g fill="none" fill-rule="evenodd">
        <g fill-rule="nonzero">
            <g>
                <g>
                    <g>
                        <g>
                            <path fill="#2F3B4A" d="M13.659 1.121l.006.129v4.245L18.4 4.167c.755-.212 1.504.314 1.581 1.074l.006.13v3.84l4.263-1.197c.756-.212 1.505.315 1.582 1.075l.006.128V33.4c0 .56-.373 1.052-.912 1.204L13.76 37.737c-.797.224-1.588-.376-1.588-1.204v-3.842L7.909 33.89c-.755.212-1.504-.315-1.581-1.075l-.006-.129-.002-4.245-4.732 1.329c-.755.211-1.504-.315-1.581-1.075l-.006-.129V4.384c0-.517.317-.976.79-1.163l.122-.04L12.078.047c.755-.212 1.504.314 1.581 1.074zm9.679 9.744l-4.22 1.185-.04.012-4.406 1.236v21.585l8.666-2.432V10.865zm-5.851-3.846l-4.688 1.316-.056.017L8.82 9.45l.001 2.714v10.108l-.001 8.762 3.35-.94v-1.93l-.102.03c-.662.194-1.357-.186-1.55-.849-.183-.62.14-1.27.727-1.508l.12-.043.806-.236v-2.426l-.102.031c-.662.195-1.357-.185-1.551-.847-.183-.621.14-1.27.726-1.51l.12-.042.806-.237v-2.426l-.101.03c-.662.195-1.357-.184-1.551-.847-.183-.62.14-1.27.726-1.509l.121-.042.806-.238v-2.425l-.103.03c-.662.195-1.356-.185-1.55-.847-.183-.621.14-1.27.727-1.51l.12-.041 2.875-.842c.56-.164 1.142.081 1.426.561l1.82-.51V7.018zm-6.322-4.12L2.5 5.331v21.585l3.82-1.073v-1.937l-.573.169c-.662.194-1.357-.186-1.55-.848-.183-.621.14-1.27.726-1.51l.121-.042 1.277-.374v-2.426l-.573.17c-.662.194-1.357-.186-1.552-.848-.182-.621.14-1.27.727-1.51l.12-.042 1.277-.375v-2.426l-.573.169c-.662.194-1.357-.185-1.55-.848-.183-.621.14-1.27.726-1.509l.121-.042 1.277-.375V8.813l-.574.169c-.662.194-1.357-.186-1.55-.848-.183-.621.14-1.27.726-1.51l.121-.041 2.874-.842c.663-.194 1.357.185 1.551.848l.019.078 1.677-.47V2.9z" transform="translate(-172 -595) translate(35 131) translate(0 415) translate(80 49.729) translate(56)"/>
                            <path fill="#0086D6" d="M20.09 13.708c.662-.195 1.357.185 1.551.847.182.621-.14 1.27-.727 1.51l-.12.041-2.875.843c-.662.195-1.357-.185-1.55-.847-.183-.621.14-1.27.726-1.51l.12-.041 2.875-.843zM20.09 18.739c.662-.195 1.357.185 1.551.847.182.621-.14 1.27-.727 1.51l-.12.042-2.875.843c-.662.194-1.357-.186-1.55-.848-.183-.621.14-1.27.726-1.51l.12-.041 2.875-.843zM20.09 23.77c.663-.194 1.357.186 1.551.848.182.621-.14 1.27-.727 1.509l-.121.042-2.874.842c-.662.194-1.357-.186-1.551-.848-.182-.621.14-1.27.727-1.509l.121-.042 2.874-.842zM20.09 28.8c.662-.194 1.357.185 1.551.848.182.62-.14 1.27-.727 1.509l-.12.042-2.875.843c-.662.194-1.357-.185-1.55-.847-.183-.622.14-1.27.726-1.51l.12-.042 2.875-.843z" transform="translate(-172 -595) translate(35 131) translate(0 415) translate(80 49.729) translate(56)"/>
                        </g>
                    </g>
                </g>
            </g>
        </g>
    </g>
</svg>
