<svg xmlns="http://www.w3.org/2000/svg" xmlns:xlink="http://www.w3.org/1999/xlink" width="34" height="24" viewBox="0 0 34 24"><defs><path id="qdlr30go5a" d="M0 23.989L33.547 23.989 33.547 0 0 0z"></path></defs><g fill="none" fill-rule="evenodd"><g><g><g><g transform="translate(-65 -272) translate(35 143) translate(0 111) translate(30 18)"><path fill="#0086d6" d="M16.06 23.989l-2.024-.002-1.628-.002c-6.354 0-10.377-4.355-12.296-13.313-.294-1.369-.008-2.543.847-3.49 3.484-3.854 15.603-2.714 20.652-2.044l-.122.952C13.606 5.044 4.257 4.953 1.655 7.832c-.645.713-.848 1.575-.62 2.635 1.835 8.568 5.45 12.558 11.373 12.558l1.629.002c2.02.003 4.536.006 6.281-.02 3.514-.052 5.43-.817 6.153-4.853l.173-.96c.231-1.275.45-2.48.61-3.594l.935.139c-.163 1.131-.383 2.344-.616 3.63l-.173.957c-.831 4.643-3.221 5.584-7.068 5.64-1.2.018-2.759.023-4.272.023"></path><mask id="jtmqrnvjkb" fill="#fff"><use xlink:href="#qdlr30go5a"></use></mask><path fill="#0086d6" d="M22.214 12.96h10.389v-12h-10.39v12zm10.86.96H21.743c-.262 0-.473-.215-.473-.48V.48c0-.265.211-.48.473-.48h11.333c.26 0 .472.215.472.48v12.96c0 .265-.211.48-.472.48z" mask="url(#jtmqrnvjkb)"></path><path fill="#0086d6" d="M26.89 5.236h1.538l-.765-2.164-.772 2.164zm1.81.87h-2.074l-.292.813h-1.085l1.795-4.717h1.238l1.788 4.717h-1.078l-.292-.813zM25.494 10.12h1.025l-.51-1.443-.515 1.443zm1.206.58h-1.382l-.195.542H24.4l1.196-3.144h.826l1.192 3.144h-.72L26.7 10.7zM29.642 10.672c.25 0 .4-.146.4-.373 0-.197-.14-.368-.4-.368h-.849v.74h.85zm-.023-1.31c.223 0 .362-.147.362-.35 0-.193-.14-.344-.362-.344h-.826v.693h.826zm-1.484-1.264h1.628c.589 0 .89.381.89.801 0 .396-.24.66-.533.722.33.051.594.376.594.772 0 .472-.311.849-.9.849h-1.679V8.098zM3.787 14.171c-.186 0-.361-.111-.436-.296-.307-.753-.594-1.553-.878-2.445-.27-.848-.21-1.618.175-2.29.605-1.052 2.017-1.816 4.198-2.27.257-.052.505.114.557.373.053.26-.112.514-.368.567-1.88.392-3.114 1.019-3.571 1.814-.248.432-.278.926-.092 1.51.276.868.554 1.644.85 2.373.101.246-.014.527-.255.628-.059.025-.12.036-.18.036" mask="url(#jtmqrnvjkb)"></path></g></g></g></g></g></svg>