<svg xmlns="http://www.w3.org/2000/svg" width="12" height="12" viewBox="0 0 12 12">
    <g fill="none" fill-rule="evenodd">
        <g>
            <g>
                <g>
                    <g>
                        <path fill="#0086D6" d="M6 10.286c.21 0 .385.151.422.351l.007.077v.857c0 .237-.192.429-.429.429-.21 0-.385-.151-.422-.351l-.007-.078v-.857c0-.237.192-.428.429-.428zM9.567 8.98l.072.05.604.603c.137.16.137.397 0 .558-.135.157-.359.193-.533.096l-.071-.05-.605-.604c-.137-.16-.137-.397 0-.558.135-.157.359-.192.533-.095zM9.43 6c0 1.893-1.536 3.429-3.429 3.429-.188 0-.373-.016-.553-.045l.827-.827C7.475 8.43 8.43 7.475 8.557 6.274l.827-.827c.03.18.045.365.045.553zM6 2.571c.189 0 .374.016.555.045l-.827.827c-1.203.126-2.159 1.082-2.285 2.285l-.827.827c-.03-.18-.045-.366-.045-.555 0-1.893 1.536-3.429 3.429-3.429zm5.571 3c.237 0 .429.192.429.429 0 .21-.151.385-.351.422l-.078.007h-.857c-.237 0-.428-.192-.428-.429 0-.21.151-.385.351-.422l.077-.007h.857zm-10.285 0c.236 0 .428.192.428.429 0 .21-.151.385-.351.422l-.077.007H.429C.192 6.429 0 6.237 0 6c0-.21.152-.385.352-.422l.077-.007h.857zM2.29 1.708l.071.05.609.604c.168.168.168.44 0 .608-.147.147-.374.165-.541.055l-.068-.055-.604-.608c-.137-.16-.137-.398 0-.558.135-.158.359-.193.533-.096zM6 0c.21 0 .385.152.422.352l.007.077v.857c0 .236-.192.428-.429.428-.21 0-.385-.151-.422-.351l-.007-.077V.429C5.571.192 5.763 0 6 0z" transform="translate(-95 -524) translate(35 126) translate(52 156) translate(8 242)"/>
                        <path stroke="#0086D6" stroke-linecap="round" d="M10.5 1.5L1 11.038" transform="translate(-95 -524) translate(35 126) translate(52 156) translate(8 242)"/>
                    </g>
                </g>
            </g>
        </g>
    </g>
</svg>
