<svg xmlns="http://www.w3.org/2000/svg" width="34" height="30" viewBox="0 0 34 30">
    <g fill="none" fill-rule="evenodd">
        <g fill-rule="nonzero">
            <g>
                <g>
                    <g>
                        <g>
                            <path fill="#2F3B4A" d="M23.618 0l.035.001.033.003c.033.002.065.006.096.011.045.008.091.018.137.031L23.807.02c.037.007.074.016.11.026l.002.001L35.084 3.18c.54.152.913.644.913 1.204v24.182c0 .828-.791 1.427-1.588 1.203L23.58 26.73l-10.828 3.04-.022.005c-.026.007-.054.014-.081.019l-.043.007-.062.008-.075.006h-.032c-.036.002-.072.001-.107-.001v-.001c-.04-.002-.079-.006-.117-.013l-.01-.003-11.166-1.919c-.557-.095-.975-.55-1.032-1.103L0 26.646v-9.924c0-.69.56-1.25 1.25-1.25.648 0 1.18.492 1.244 1.123l.006.127v8.87l8.666 1.49V5.438L2.499 3.95v6.25c0 .647-.491 1.179-1.122 1.243l-.127.006c-.648 0-1.18-.491-1.244-1.122l-.007-.128V2.466C0 1.735.623 1.17 1.336 1.22l.126.015 10.886 1.87L23.245.046l.005-.001c.035-.01.072-.02.108-.026l.024-.003c.031-.006.063-.01.096-.013l.033-.002.072-.002h.036zM22.33 2.9L13.666 5.33v21.585l8.665-2.432V2.9zm2.5 0v21.584l8.665 2.432V5.331L24.831 2.9z" transform="translate(-164 -393) translate(35 131) translate(0 208) translate(113 54.707) translate(15)"/>
                            <path fill="#0086D6" d="M19.083 5.74c.662-.194 1.357.185 1.551.847.183.621-.14 1.27-.726 1.51l-.121.042-2.873.843c-.662.194-1.357-.185-1.551-.848-.183-.62.14-1.27.726-1.509l.121-.042 2.873-.843zM19.083 10.771c.662-.194 1.357.185 1.551.848.183.62-.14 1.27-.726 1.509l-.121.042-2.873.843c-.662.194-1.357-.185-1.551-.847-.183-.621.14-1.27.726-1.51l.121-.042 2.873-.843zM19.083 15.802c.663-.194 1.357.186 1.552.848.182.621-.14 1.27-.728 1.51l-.12.041-2.873.842c-.663.195-1.357-.185-1.552-.848-.182-.62.14-1.27.728-1.509l.12-.042 2.873-.842zM19.083 20.833c.662-.195 1.357.185 1.551.847.183.621-.14 1.27-.726 1.51l-.121.042-2.873.843c-.662.194-1.357-.186-1.551-.848-.183-.621.14-1.27.726-1.51l.121-.041 2.873-.843z" transform="translate(-164 -393) translate(35 131) translate(0 208) translate(113 54.707) translate(15)"/>
                        </g>
                    </g>
                </g>
            </g>
        </g>
    </g>
</svg>
