<svg xmlns="http://www.w3.org/2000/svg" xmlns:xlink="http://www.w3.org/1999/xlink" width="34" height="22" viewBox="0 0 34 22">
    <defs>
        <path id="qkmgzeehta" d="M0.053 0.306L3.422 0.306 3.422 3.697 0.053 3.697z"/>
        <path id="k8j790pfnc" d="M0 0.135L29.007 0.135 29.007 20.044 0 20.044z"/>
    </defs>
    <g fill="none" fill-rule="evenodd">
        <g>
            <g>
                <g>
                    <g>
                        <path fill="#0086D6" d="M27.382 10.87c0-3.002 2.418-5.435 5.4-5.435-2.983 0-5.4-2.434-5.4-5.435 0 3.001-2.418 5.435-5.4 5.435 2.982 0 5.4 2.433 5.4 5.435" transform="translate(-65 -394) translate(35 143) translate(0 231) translate(30 20)"/>
                        <g transform="translate(-65 -394) translate(35 143) translate(0 231) translate(30 20) translate(30.114 7.692)">
                            <mask id="ls09ts4pcb" fill="#fff">
                                <use xlink:href="#qkmgzeehta"/>
                            </mask>
                            <path fill="#0086D6" d="M1.737.306c0 .937-.754 1.696-1.684 1.696.93 0 1.684.759 1.684 1.695 0-.936.755-1.695 1.685-1.695-.93 0-1.685-.76-1.685-1.696" mask="url(#ls09ts4pcb)"/>
                        </g>
                        <path fill="#0086D6" d="M30.88 1.914c0 .517-.416.936-.93.936.514 0 .93.419.93.935 0-.516.417-.935.93-.935-.513 0-.93-.42-.93-.936" transform="translate(-65 -394) translate(35 143) translate(0 231) translate(30 20)"/>
                        <g transform="translate(-65 -394) translate(35 143) translate(0 231) translate(30 20) translate(0 1.826)">
                            <mask id="p3q34prhxd" fill="#fff">
                                <use xlink:href="#k8j790pfnc"/>
                            </mask>
                            <path fill="#0086D6" d="M27.405 13.126l-.177.976c-.744 4.11-2.715 4.89-6.33 4.942-1.794.027-4.382.024-6.46.02h-1.675c-6.093 0-9.81-4.065-11.698-12.792-.244-1.124-.007-2.032.724-2.775 1.76-1.789 6.079-2.363 10.674-2.363 4.079 0 8.367.452 11.28.908l.745-.867C18.938.252 5.06-1.217 1.1 2.81.132 3.792-.199 5.029.115 6.48c1.974 9.124 6.111 13.56 12.648 13.56l1.674.001 2.082.002c1.557 0 3.16-.004 4.394-.022 3.957-.058 6.415-1.017 7.27-5.746l.178-.973c.245-1.337.476-2.61.646-3.796l-1.026.226c-.153 1.03-.349 2.154-.576 3.393" mask="url(#p3q34prhxd)"/>
                        </g>
                        <path fill="#0086D6" d="M4.381 11.87c-.19 0-.371-.113-.449-.3-.315-.768-.61-1.583-.902-2.491-.277-.864-.217-1.648.18-2.332.621-1.072 2.074-1.85 4.318-2.313.263-.053.52.116.573.38.054.265-.116.524-.379.578C5.79 5.79 4.52 6.43 4.048 7.24c-.254.44-.285.943-.094 1.538.284.884.57 1.674.875 2.417.103.25-.015.536-.262.639-.061.025-.124.037-.186.037" transform="translate(-65 -394) translate(35 143) translate(0 231) translate(30 20)"/>
                    </g>
                </g>
            </g>
        </g>
    </g>
</svg>
