<svg xmlns="http://www.w3.org/2000/svg" xmlns:xlink="http://www.w3.org/1999/xlink" width="18" height="20" viewBox="0 0 18 20"><defs><path id="z93eysqcha" d="M0.026 0.143L7.904 0.143 7.904 19.231 0.026 19.231z"></path></defs><g fill="none" fill-rule="evenodd"><g><g><g><path fill="#2F3B4A" d="M7.776 4.491c-.15.139-.347.208-.543.208-.196 0-.392-.07-.54-.208l-1.927-1.78v14.58c0 .392-.344.709-.767.709-.423 0-.766-.317-.766-.708V2.712l-1.925 1.78c-.3.277-.785.277-1.084 0-.299-.277-.299-.726 0-1.003L3.457.502 3.999 0l.543.502 3.234 2.987c.299.277.299.726 0 1.002" transform="translate(-886 -27) translate(846 27) translate(40)"></path><g opacity="0.2" transform="translate(-886 -27) translate(846 27) translate(40) translate(10)"><mask id="6zbs41355b" fill="#fff"><use xlink:href="#z93eysqcha"></use></mask><path fill="#2F3B4A" d="M7.683 15.53L4.5 18.7l-.534.532-.535-.532L.246 15.53c-.294-.294-.294-.769 0-1.063.296-.293.773-.293 1.07 0l1.895 1.888V.894c0-.415.338-.751.755-.751.416 0 .754.336.754.75v15.462l1.896-1.888c.296-.293.773-.293 1.067 0 .295.294.295.769 0 1.063" mask="url(#6zbs41355b)"></path></g></g></g></g></g></svg>