<svg xmlns="http://www.w3.org/2000/svg" width="31" height="37" viewBox="0 0 31 37"><g fill="none" fill-rule="evenodd"><g><g><g><g><g><path fill="#0086D6" d="M13.231 27.403c-7.296 0-13.23-6.147-13.23-13.702S5.934.001 13.23.001s13.232 6.145 13.232 13.7-5.936 13.702-13.232 13.702m0-25.12c-6.08 0-11.025 5.123-11.025 11.418 0 6.296 4.946 11.418 11.025 11.418 6.08 0 11.025-5.122 11.025-11.418 0-6.295-4.945-11.417-11.025-11.417" transform="translate(-906 -350) translate(818 154) translate(0 154) translate(66 42) translate(22)"></path><path fill="#2F3B4A" d="M19.749 34.254H7.719c-.609 0-1.103.511-1.103 1.142 0 .63.494 1.141 1.103 1.141h12.03v-2.283z" transform="translate(-906 -350) translate(818 154) translate(0 154) translate(66 42) translate(22)"></path><path fill="#0086D6" d="M10.047 15.458c-.184-.254-.459-.418-.762-.451l-3.65-.418c-.607-.07-1.151.383-1.218 1.01-.066.627.37 1.19.975 1.26l2.478.284-.61 3.315h2.204l.784-4.115c.054-.311-.018-.63-.201-.885M19.878 9.752l-1.42 6.07-1.651 1.63.324-2.356c.065-.47-.158-.933-.56-1.162l-3.2-1.821 2.092-2.92c.205-.287.27-.655.174-.997-.096-.343-.34-.62-.66-.749l-2.113-.849c-.212-.085-.446-.1-.667-.043L9.1 7.359 7.5 5.974c-.466-.404-1.162-.34-1.552.144-.39.484-.329 1.204.138 1.609l2.03 1.758c.27.233.633.32.975.23l3.3-.857.439.177-1.983 2.769c-.19.265-.259.601-.191.925.067.321.266.596.545.755l3.638 2.07-.667 4.837c-.067.48.168.953.586 1.177.16.084.333.125.506.125.276 0 .55-.107.76-.314l4.187-4.134c.152-.151.26-.343.31-.554l1.521-6.493-2.165-.446z" transform="translate(-906 -350) translate(818 154) translate(0 154) translate(66 42) translate(22)"></path><path fill="#2F3B4A" d="M25.715.792l-1.56 1.615c6.018 6.23 6.017 16.372 0 22.605-3.01 3.116-6.962 4.675-10.916 4.675-3.953-.001-7.907-1.56-10.915-4.675-.43-.446-1.129-.446-1.559.001-.43.445-.43 1.168 0 1.614 3.439 3.56 7.956 5.341 12.474 5.341s9.036-1.781 12.476-5.341c6.876-7.124 6.876-18.713 0-25.835" transform="translate(-906 -350) translate(818 154) translate(0 154) translate(66 42) translate(22)"></path></g></g></g></g></g></g></svg>