<svg xmlns="http://www.w3.org/2000/svg" xmlns:xlink="http://www.w3.org/1999/xlink" width="25" height="25" viewBox="0 0 16 15">
    <defs>
        <path id="e48njd909a" d="M0 0.031L2.904 0.031 2.904 2.928 0 2.928z"/>
        <path id="m651mk3msc" d="M0.026 0L3.359 0 3.359 3.325 0.026 3.325z"/>
    </defs>
    <g fill="none" fill-rule="evenodd">
        <g>
            <g>
                <g>
                    <g>
                        <g>
                            <g>
                                <path fill="#0086D6" d="M10.179 1.782L1.5 10.439c1.01.497 1.823 1.308 2.32 2.315l8.68-8.657-2.321-2.315z" transform="translate(-433 -208) translate(35 132) translate(381.648 59) matrix(0 -1 -1 0 50 50) translate(18.571 18.571) translate(0 .035)"/>
                                <g transform="translate(-433 -208) translate(35 132) translate(381.648 59) matrix(0 -1 -1 0 50 50) translate(18.571 18.571) translate(0 .035) translate(0 11.323)">
                                    <mask id="5vo7gyad3b" fill="#fff">
                                        <use xlink:href="#e48njd909a"/>
                                    </mask>
                                    <path fill="#0086D6" d="M.88.03L0 2.929l2.904-.877C2.5 1.15 1.782.434.88.03" mask="url(#5vo7gyad3b)"/>
                                </g>
                                <g transform="translate(-433 -208) translate(35 132) translate(381.648 59) matrix(0 -1 -1 0 50 50) translate(18.571 18.571) translate(0 .035) translate(10.926)">
                                    <mask id="rp29ityand" fill="#fff">
                                        <use xlink:href="#m651mk3msc"/>
                                    </mask>
                                    <path fill="#0086D6" d="M2.88.479C2.24-.16 1.198-.16.558.479l-.533.531 2.32 2.315.533-.532c.64-.638.64-1.676 0-2.314" mask="url(#rp29ityand)"/>
                                </g>
                            </g>
                        </g>
                    </g>
                </g>
            </g>
        </g>
    </g>
</svg>
