<svg xmlns="http://www.w3.org/2000/svg" width="37" height="39" viewBox="0 0 37 39">
    <g fill="none" fill-rule="evenodd">
        <g>
            <g>
                <g>
                    <g>
                        <g>
                            <path fill="#2F3B4A" d="M18.375 3.162c-8.735 0-15.84 7.39-15.84 16.471 0 9.083 7.105 16.472 15.84 16.472 8.734 0 15.84-7.39 15.84-16.472s-7.106-16.47-15.84-16.47m0 35.577C8.243 38.74 0 30.169 0 19.633 0 9.098 8.243.527 18.375.527c10.131 0 18.374 8.571 18.374 19.106 0 10.536-8.243 19.107-18.374 19.107" transform="translate(-903 -503) translate(818 154) translate(0 307) translate(54 42) translate(31)"/>
                            <path fill="#0086D6" d="M16.764 29.387L19.986 29.387 19.986 16.49 16.764 16.49zM20.233 11.812c0 1.068-.832 1.933-1.858 1.933-1.026 0-1.859-.865-1.859-1.933 0-1.066.833-1.932 1.859-1.932s1.858.866 1.858 1.932" transform="translate(-903 -503) translate(818 154) translate(0 307) translate(54 42) translate(31)"/>
                        </g>
                    </g>
                </g>
            </g>
        </g>
    </g>
</svg>
