<svg xmlns="http://www.w3.org/2000/svg" width="17" height="16" viewBox="0 0 17 16">
    <g fill="none" fill-rule="evenodd">
        <g fill="#0086D6" fill-rule="nonzero">
            <g>
                <g>
                    <g>
                        <path d="M4.422 5.143c.416 0 .752.333.752.743 0 .406-.328.736-.736.744H2.002c-.27 0-.49.213-.497.48v6.91c0 .267.215.485.484.493h13.008c.27 0 .491-.213.498-.48v-6.91c0-.268-.215-.485-.484-.493h-2.433c-.416 0-.752-.333-.752-.744 0-.405.328-.735.736-.743h2.436c1.094 0 1.984.869 2.002 1.947V14.02c0 1.083-.879 1.962-1.97 1.98H2.003C.908 16 .018 15.131 0 14.053v-6.93C0 6.04.879 5.16 1.97 5.143h2.453zM8.783 0c.404 0 .732.32.74.72v7.895l1.113-1.103c.29-.287.758-.287 1.047 0 .285.283.29.738.013 1.026l-.013.013-2.9 2.878-2.9-2.878c-.289-.287-.289-.752 0-1.04.285-.282.745-.286 1.035-.012l.013.013 1.112 1.103V.735c0-.406.331-.735.74-.735z" transform="translate(-255 -675) translate(35 126) translate(208 537) translate(12 12)"/>
                    </g>
                </g>
            </g>
        </g>
    </g>
</svg>
