<svg xmlns="http://www.w3.org/2000/svg" xmlns:xlink="http://www.w3.org/1999/xlink" width="45" height="27" viewBox="0 0 45 27">
    <defs>
        <path id="77sbgu90wb" d="M0.418 0.661L15.3 0.661 15.3 14.614 0.418 14.614z"/>
        <path id="6ojlod7syd" d="M0 0.152L35.11 0.152 35.11 23.115 0 23.115z"/>
        <filter id="2ulbmihlea">
            <feColorMatrix in="SourceGraphic" values="0 0 0 0 0.000000 0 0 0 0 0.525490 0 0 0 0 0.839216 0 0 0 1.000000 0"/>
        </filter>
    </defs>
    <g fill="none" fill-rule="evenodd" opacity=".1">
        <g>
            <g>
                <g filter="url(#2ulbmihlea)" transform="translate(-351 -151) translate(26 126) translate(240 24)">
                    <g>
                        <g>
                            <path fill="#FFF" d="M34.713 18.178l-.22 1.126c-.92 4.74-3.361 5.638-7.835 5.699-2.222.03-5.426.028-7.998.023l-2.074-.001c-7.543 0-12.145-4.687-14.482-14.748-.301-1.297-.008-2.344.897-3.201C5.18 5.013 10.527 4.35 16.215 4.35c3.697 0 7.529.28 10.733.636.141-.372.305-.735.502-1.079-8.032-.935-21.124-1.582-25.303 2.374C.95 7.416.54 8.842.928 10.516c2.445 10.522 7.566 15.637 15.658 15.637l2.072.001 2.577.002c1.928 0 3.913-.005 5.44-.026 4.9-.066 7.943-1.171 9.001-6.624l.22-1.123c.205-1.04.4-2.044.57-3.01-.407.075-.825.116-1.25.132-.15.84-.317 1.724-.503 2.673" transform="translate(85 1) translate(2.7 .692)"/>
                            <path fill="#FFF" d="M6.21 14.627c-.237 0-.46-.131-.556-.349-.39-.884-.756-1.823-1.117-2.87-.343-.997-.268-1.901.223-2.69.769-1.235 2.568-2.133 5.345-2.666.326-.062.643.134.71.438.066.305-.143.604-.469.666-2.394.46-3.967 1.197-4.548 2.13-.315.508-.354 1.088-.116 1.774.35 1.02.704 1.93 1.083 2.787.127.288-.019.618-.325.737-.076.028-.153.043-.23.043" transform="translate(85 1) translate(2.7 .692)"/>
                            <g transform="translate(85 1) translate(2.7 .692) translate(27)">
                                <mask id="a6tqvy511c" fill="#fff">
                                    <use xlink:href="#77sbgu90wb"/>
                                </mask>
                                <path fill="#FFF" d="M7.859 1.789c-3.44 0-6.239 2.624-6.239 5.849 0 3.224 2.8 5.848 6.239 5.848 3.44 0 6.239-2.624 6.239-5.848 0-3.225-2.8-5.85-6.24-5.85m0 12.826c-4.102 0-7.44-3.13-7.44-6.976C.418 3.79 3.756.662 7.858.662c4.104 0 7.442 3.129 7.442 6.976 0 3.846-3.338 6.976-7.441 6.976" mask="url(#a6tqvy511c)"/>
                            </g>
                        </g>
                        <text fill="#FFF" font-family="AkhandSoft-Bold, Akhand Soft" font-size="10.021" font-weight="bold" transform="translate(85 1)">
                            <tspan x="35.68" y="11.629">2</tspan>
                        </text>
                        <g>
                            <g transform="translate(85 1) translate(0 .692)">
                                <mask id="09gubhpj5e" fill="#fff">
                                    <use xlink:href="#6ojlod7syd"/>
                                </mask>
                                <path fill="#FFF" d="M35.11 15.2l-.22 1.265c-1.06 5.452-4.102 6.558-9 6.625-1.528.02-3.512.025-5.44.025-.889 0-1.765 0-2.578-.003l-2.073-.001C7.71 23.11 2.587 17.997.142 7.475c-.389-1.675.02-3.1 1.219-4.234C5.539-.714 21.5-.254 31.423 1.226c-.198.343-.361.706-.504 1.078-3.203-.356-11.794-.993-15.49-.993-5.688 0-11.036.661-13.214 2.724-.905.857-1.198 1.904-.897 3.2 2.337 10.062 6.939 14.75 14.481 14.75l2.074.001c2.573.003 5.776.007 7.998-.024 4.475-.061 6.915-.959 7.836-5.7l.22-1.125 1.183.064z" mask="url(#09gubhpj5e)"/>
                            </g>
                            <path fill="#FFF" d="M26.696 20.722c-.385 0-.637-.035-.665-.04-.283-.04-.476-.287-.432-.551.043-.264.302-.446.589-.407.017.002 1.817.242 3.18-.775.927-.691 1.46-1.815 1.587-3.34.023-.266.278-.467.557-.445.284.02.497.254.475.52-.151 1.81-.82 3.166-1.986 4.032-1.158.859-2.514 1.006-3.305 1.006" transform="translate(85 1) translate(0 .692)"/>
                        </g>
                    </g>
                </g>
            </g>
        </g>
    </g>
</svg>
