<svg xmlns="http://www.w3.org/2000/svg" xmlns:xlink="http://www.w3.org/1999/xlink" width="43" height="44" viewBox="0 0 43 44">
    <defs>
        <path id="2xrguhz5ba" d="M0 0.135L42.865 0.135 42.865 43 0 43z"/>
        <path id="0c141tkk3c" d="M0 0.135L42.865 0.135 42.865 43 0 43z"/>
    </defs>
    <g fill="none" fill-rule="evenodd">
        <g>
            <g>
                <g transform="translate(-35 -15) translate(35 15) translate(0 .001)">
                    <mask id="9ltl3cknpb" fill="#fff">
                        <use xlink:href="#2xrguhz5ba"/>
                    </mask>
                    <path fill="#FFF" d="M0 43V.135h42.865V43C42.865 42.59 0 43 0 43" mask="url(#9ltl3cknpb)"/>
                </g>
                <path fill="#0086D6" d="M30.65 32.57c-1.065 0-1.887.81-1.887 1.91 0 1.1.822 1.91 1.886 1.91 1.065 0 1.886-.81 1.886-1.91 0-1.1-.821-1.91-1.886-1.91M6.21 32.542c-.898 0-1.624.559-1.761 1.48h3.469c-.1-.875-.726-1.48-1.708-1.48M21.433 20.138c-2.495 0-4.554-2.02-4.554-4.554 0-2.52 2.044-4.554 4.554-4.554.742 0 1.457.176 2.097.51l-3.071 3.07c-.538.539-.538 1.41 0 1.948.538.537 1.41.537 1.947 0l5.109-5.121s-.376-.477-.915-1.02c-1.38-1.38-3.215-2.14-5.167-2.14-3.995 0-7.308 3.227-7.308 7.307 0 4.01 3.245 7.308 7.308 7.308 3.57 0 6.89-2.652 7.272-6.64h-2.776c-.38 2.455-2.447 3.886-4.496 3.886" transform="translate(-35 -15) translate(35 15)"/>
                <g transform="translate(-35 -15) translate(35 15) translate(0 .001)">
                    <mask id="ct4ignv4zd" fill="#fff">
                        <use xlink:href="#0c141tkk3c"/>
                    </mask>
                    <path fill="#0086D6" d="M3.055 34.484c0-1.743 1.313-3.185 3.167-3.185 2.062 0 3.106 1.523 3.106 3.278 0 .127-.013.254-.025.462H4.47c.163.923 1.024 1.39 1.937 1.39.724 0 1.203-.22 1.719-.694l.908.78c-.614.693-1.46 1.143-2.651 1.143-1.879 0-3.327-1.292-3.327-3.174zm8.87.406c-1.005-.3-1.765-.862-1.765-1.698 0-1.215.97-1.885 2.189-1.885.767 0 1.602.263 2.257.71l-.564 1.063c-.55-.32-1.229-.564-1.741-.564-.487 0-.781.283-.781.563 0 .4.715.647 1.478.913.986.334 1.744.805 1.744 1.733 0 1.362-1.005 1.925-2.314 1.925-.847 0-1.794-.304-2.608-.892l.636-1.055c.72.52 1.46.742 2.065.742.59 0 .893-.312.893-.638 0-.449-.698-.672-1.488-.917zm5.463 0c-1.006-.3-1.766-.862-1.766-1.698 0-1.215.97-1.885 2.19-1.885.766 0 1.601.263 2.256.71l-.563 1.063c-.55-.32-1.23-.564-1.742-.564-.487 0-.781.283-.781.563 0 .4.715.647 1.478.913.986.334 1.744.805 1.744 1.733 0 1.362-1.005 1.925-2.314 1.925-.847 0-1.794-.304-2.608-.892l.636-1.055c.72.52 1.46.742 2.065.742.59 0 .893-.312.893-.638 0-.449-.697-.672-1.488-.917zm3.815 2.603h1.27v-6.029h-1.27v6.029zm4.574-1.247h1.588v1.247h-1.63c-1.23 0-1.877-.536-1.877-1.67v-4.359h1.272v4.223c0 .434.176.559.647.559zm8.064-1.767c0 1.789-1.414 3.18-3.192 3.18-1.765 0-3.191-1.391-3.191-3.18 0-1.802 1.426-3.18 3.191-3.18 1.778 0 3.192 1.378 3.192 3.18zM21.433 6.052c6.793 0 12.728 3.83 15.934 9.53-3.206 5.702-9.141 9.532-15.934 9.532-6.794 0-12.73-3.83-15.935-9.531 3.206-5.702 9.141-9.531 15.935-9.531zm18.284 27.48c0 .96-.403 1.517-1.254 1.945l1.64 2.016h-1.668l-1.3-1.71c-.303-.413-.241-.855.13-1.084.106-.066.265-.138.346-.172.42-.178.77-.401.77-.956 0-.583-.423-.86-.955-.86h-1.462v4.782h-1.27v-6.029h2.764c1.405 0 2.26.752 2.26 2.069zM5.497 43h37.368V.135H0V43h5.498z" mask="url(#ct4ignv4zd)"/>
                </g>
            </g>
        </g>
    </g>
</svg>
