<svg xmlns="http://www.w3.org/2000/svg" xmlns:xlink="http://www.w3.org/1999/xlink" width="34" height="24" viewBox="0 0 34 24">
    <defs>
        <path id="7qzps6og7a" d="M0 0.05L28.564 0.05 28.564 19.636 0 19.636z"/>
        <path id="nte7qeys2c" d="M0 23.886L33.994 23.886 33.994 0 0 0z"/>
    </defs>
    <g fill="none" fill-rule="evenodd">
        <g>
            <g>
                <g>
                    <g transform="translate(-65 -503) translate(35 143) translate(0 342) translate(30 18)">
                        <g transform="translate(0 4.25)">
                            <mask id="ugm50xct7b" fill="#fff">
                                <use xlink:href="#7qzps6og7a"/>
                            </mask>
                            <path fill="#0086D6" d="M16.273 19.636c-.706 0-1.403 0-2.05-.002l-1.65-.001c-6.44 0-10.515-4.365-12.46-13.344-.297-1.37-.008-2.548.859-3.496 3.53-3.864 15.81-2.72 20.927-2.05l-.124.954C13.787.65 4.313.56 1.677 3.443c-.653.715-.859 1.58-.629 2.642 1.86 8.587 5.523 12.586 11.525 12.586l1.65.001c2.048.003 4.597.006 6.366-.02 3.56-.052 5.502-.818 6.235-4.863l.175-.962c.234-1.279.456-2.487.618-3.602l.947.139c-.165 1.134-.388 2.35-.624 3.637l-.175.96c-.842 4.653-3.264 5.596-7.162 5.653-1.216.018-2.796.022-4.33.022" mask="url(#ugm50xct7b)"/>
                        </g>
                        <mask id="q575qelw0d" fill="#fff">
                            <use xlink:href="#nte7qeys2c"/>
                        </mask>
                        <path fill="#0086D6" d="M22.51 12.989h10.527V.962H22.509V12.99zm11.005.962H22.031c-.264 0-.479-.215-.479-.481V.48c0-.265.215-.48.479-.48h11.484c.265 0 .479.215.479.48v12.99c0 .266-.214.481-.479.481zM3.838 14.046c-.188 0-.367-.111-.443-.297-.31-.755-.602-1.556-.889-2.45-.273-.85-.213-1.622.177-2.295.613-1.054 2.044-1.82 4.254-2.276.26-.052.512.115.565.375.053.26-.114.514-.373.568-1.905.393-3.156 1.021-3.62 1.818-.25.433-.28.928-.092 1.514.28.87.561 1.647.862 2.378.101.246-.015.527-.259.629-.06.024-.121.036-.182.036" mask="url(#q575qelw0d)"/>
                        <path stroke="#0086D6" stroke-linecap="round" stroke-width=".5" d="M30.556 8.378L24.991 8.378M30.556 7.092L24.991 7.092M30.556 5.806L24.991 5.806M27.773 1.932L27.773 4.042M28.621 3.19L27.773 4.042 26.925 3.19M27.773 12.019L27.773 9.909M28.621 10.762L27.773 9.909 26.925 10.762" mask="url(#q575qelw0d)"/>
                    </g>
                </g>
            </g>
        </g>
    </g>
</svg>
