<svg xmlns="http://www.w3.org/2000/svg" xmlns:xlink="http://www.w3.org/1999/xlink" width="30" height="21" viewBox="0 0 30 21">
    <defs>
        <path id="qcmpoxd0fa" d="M0 0.033L29.692 0.033 29.692 20.523 0 20.523z"/>
    </defs>
    <g fill="none" fill-rule="evenodd">
        <g>
            <g>
                <g>
                    <g>
                        <g transform="translate(-65 -335) translate(35 143) translate(0 171) translate(30 21) translate(0 .445)">
                            <mask id="8bghwysibb" fill="#fff">
                                <use xlink:href="#qcmpoxd0fa"/>
                            </mask>
                            <path fill="#0086D6" d="M28.978 7.46c0 1.413-3.623 3.762-4.435 4.16-.818-.39-4.435-2.622-4.435-4.413V2.735c1.27-.172 3.542-1.129 4.436-1.852.872.718 3.076 1.694 4.434 1.855V7.46zm-2.11 6.304l-.174.957c-.73 4.013-2.662 4.774-6.205 4.825-1.76.026-4.297.023-6.334.02l-1.643-.001c-5.973 0-9.618-3.968-11.47-12.487-.226-1.046-.026-1.898.612-2.604 2.014-2.227 8.604-2.966 17.74-2.014v4.747c0 2.526 4.785 5.073 5.056 5.146.03.008.061.012.092.012s.062-.004.093-.012c.122-.033 1.504-.785 2.793-1.802-.156 1.006-.352 2.082-.56 3.213zm2.467-11.718c-1.266 0-4.117-1.328-4.498-1.87-.134-.19-.45-.19-.584 0-.267.38-1.734 1.108-3 1.534l-.448-.054-.024.202h-.001l.023-.202-.145-.017C15.84 1.075 4.27.16.948 3.833.1 4.77-.18 5.93.112 7.28c1.936 8.908 5.992 13.238 12.4 13.238l1.641.002 2.041.002c1.526 0 3.099-.005 4.308-.022 3.88-.057 6.29-.993 7.128-5.61l.176-.955c.259-1.41.503-2.742.67-3.966l-.314-.043.315.043.052-.398c.673-.69 1.163-1.428 1.163-2.112V2.403c0-.197-.16-.357-.357-.357z" mask="url(#8bghwysibb)"/>
                        </g>
                        <path fill="#0086D6" d="M21.476 4.256v3.106c0 1.192 2.425 2.713 3.068 3.038.622-.325 3.064-1.925 3.064-2.857V4.258c-.925-.146-2.392-.765-3.066-1.283-.676.511-2.15 1.132-3.066 1.281m3.066 6.893c-.03 0-.061-.004-.092-.012-.222-.06-3.688-1.882-3.688-3.775v-3.43c0-.198.16-.359.357-.359.82 0 2.895-.953 3.134-1.292.066-.096.175-.152.292-.152.116 0 .225.057.291.152.231.328 2.219 1.292 3.13 1.292.197 0 .357.16.357.358v3.612c0 1.617-3.512 3.546-3.688 3.594-.03.008-.061.012-.093.012M3.61 11.206c-.187 0-.364-.111-.44-.295-.309-.75-.599-1.544-.884-2.431-.272-.843-.213-1.609.176-2.276.61-1.047 2.034-1.807 4.233-2.259.259-.051.51.114.562.372.053.258-.113.51-.37.563-1.897.39-3.142 1.014-3.603 1.804-.25.43-.28.921-.092 1.502.278.863.558 1.635.858 2.36.101.243-.015.523-.258.623-.06.025-.121.037-.182.037" transform="translate(-65 -335) translate(35 143) translate(0 171) translate(30 21)"/>
                    </g>
                </g>
            </g>
        </g>
    </g>
</svg>
