<svg xmlns="http://www.w3.org/2000/svg" width="41" height="31" viewBox="0 0 41 31">
    <g fill="none" fill-rule="evenodd">
        <g>
            <g>
                <g>
                    <g>
                        <g>
                            <g>
                                <path fill="#2F3B4A" d="M37.185 29.09c-.972 0-1.763-.781-1.763-1.742 0-.96.79-1.742 1.763-1.742.972 0 1.763.782 1.763 1.742s-.79 1.742-1.763 1.742zm-17.26-13.767L8.169 10.37l-.063-.026L3.494 8.4l16.438-6.43 16.932 6.263-16.94 7.09zm9.941 6.113c0 .732-1.058 1.595-2.764 2.251-2.069.795-4.843 1.234-7.807 1.234-2.962 0-5.736-.439-7.805-1.234-1.706-.656-2.764-1.52-2.764-2.251v-8.764l10.82 4.559c.12.05.248.076.377.076.127 0 .256-.025.375-.076l9.568-4.006v8.21zm8.281 2.394V9.76l1.689-.707c.363-.15.594-.506.587-.894-.008-.39-.256-.735-.626-.871L20.26.06c-.224-.084-.47-.08-.692.005L.608 7.484c-.363.142-.602.486-.608.872-.006.385.225.737.585.887l6.216 2.618v9.575c0 3.499 6.437 5.387 12.494 5.387 6.058 0 12.496-1.888 12.496-5.387v-8.458c0-.183-.051-.354-.144-.498l4.576-1.915V23.83c-1.57.42-2.726 1.837-2.726 3.518 0 2.009 1.655 3.644 3.688 3.644 2.035 0 3.688-1.635 3.688-3.644 0-1.68-1.157-3.1-2.726-3.518z" transform="translate(-901 -254) translate(818) translate(0 75) translate(0 141) translate(66 38) translate(17)"/>
                                <path fill="#0086D6" fill-rule="nonzero" d="M37.15 23.678c-2.073 0-3.753 1.66-3.753 3.709 0 2.048 1.68 3.708 3.753 3.708 2.073 0 3.754-1.66 3.754-3.708 0-2.049-1.68-3.71-3.754-3.71zm0 2.092c.904 0 1.636.724 1.636 1.617 0 .892-.732 1.616-1.636 1.616-.903 0-1.636-.724-1.636-1.616 0-.893.733-1.617 1.636-1.617z" transform="translate(-901 -254) translate(818) translate(0 75) translate(0 141) translate(66 38) translate(17)"/>
                            </g>
                        </g>
                    </g>
                </g>
            </g>
        </g>
    </g>
</svg>
