<svg xmlns="http://www.w3.org/2000/svg" width="36" height="35" viewBox="0 0 36 35">
    <g fill="none" fill-rule="evenodd">
        <g>
            <g>
                <g>
                    <g>
                        <g>
                            <g>
                                <path fill="#2F3B4A" d="M2.323 13.04h10.874V2.295H2.323V13.04zm12.035 2.295H1.161c-.64 0-1.161-.513-1.161-1.147V1.148C0 .514.52 0 1.161 0h13.197C15 0 15.52.514 15.52 1.148v13.04c0 .634-.52 1.147-1.16 1.147zM22.347 13.04h10.875V2.295H22.347V13.04zm12.036 2.295H21.186c-.641 0-1.161-.513-1.161-1.147V1.148c0-.634.52-1.148 1.161-1.148h13.197c.64 0 1.161.514 1.161 1.148v13.04c0 .634-.52 1.147-1.161 1.147z" transform="translate(-904 -390) translate(818) translate(0 75) translate(0 279) translate(48 36) translate(38)"/>
                                <path fill="#0086D6" d="M2.323 32.705h10.874V21.959H2.323v10.746zM14.358 35H1.161C.521 35 0 34.486 0 33.852v-13.04c0-.634.52-1.148 1.161-1.148h13.197c.641 0 1.161.514 1.161 1.148v13.04c0 .634-.52 1.148-1.16 1.148z" transform="translate(-904 -390) translate(818) translate(0 75) translate(0 279) translate(48 36) translate(38)"/>
                                <path fill="#2F3B4A" d="M22.347 32.705h10.875V21.959H22.347v10.746zM34.383 35H21.186c-.641 0-1.161-.514-1.161-1.148v-13.04c0-.634.52-1.148 1.161-1.148h13.197c.64 0 1.161.514 1.161 1.148v13.04c0 .634-.52 1.148-1.161 1.148z" transform="translate(-904 -390) translate(818) translate(0 75) translate(0 279) translate(48 36) translate(38)"/>
                            </g>
                        </g>
                    </g>
                </g>
            </g>
        </g>
    </g>
</svg>
