<?xml version="1.0" encoding="UTF-8"?>
<svg width="40px" height="27px" viewBox="0 0 40 27" version="1.1" xmlns="http://www.w3.org/2000/svg" xmlns:xlink="http://www.w3.org/1999/xlink">
    <title>9705332C-5EB2-4EE7-B320-CFE6A68F60D4</title>
    <g id="EssilorCompanion---DA---Adult" stroke="none" stroke-width="1" fill="none" fill-rule="evenodd">
        <g id="LOT-1-/-Home-/-EssilorCompanion_V1_Home_00" transform="translate(-163.000000, -187.000000)" fill-rule="nonzero">
            <g id="Stacked-Group-3" transform="translate(35.000000, 131.000000)">
                <g id="Stacked-Group" transform="translate(68.000000, 56.000000)">
                    <g id="Icon-/-What's-New-/-Grey-(100%)" transform="translate(60.000000, 0.000000)">
                        <path d="M26.1483286,0.0883981717 C26.9692258,-0.238921916 27.8613,0.365751924 27.8613,1.2495 L27.8613,1.2495 L27.8613,21.9625 C27.8613,22.8462481 26.9692258,23.4509219 26.1483286,23.1236018 L26.1483286,23.1236018 L10.05,16.7042724 L9.321,16.7042724 L9.33952239,22.5139227 C9.34511205,24.369093 7.95606655,25.9158971 6.10355896,26.135521 L5.91030517,26.1534647 L5.7045,26.1597 C3.70134005,26.1597 2.07560032,24.5400827 2.06950604,22.5365853 L2.06950604,22.5365853 L2.051,16.7042724 L1.25,16.7051 C0.602791309,16.7051 0.0704661011,16.2132253 0.00645360909,15.5829052 L-2.13162821e-14,15.4551 L-2.13162821e-14,7.7581 C-2.13162821e-14,7.06774406 0.559644063,6.5081 1.25,6.5081 L1.25,6.5081 L10.05,6.50727238 Z M6.821,16.7042724 L4.551,16.7042724 L4.56949422,22.5288977 C4.57114302,23.0709413 4.95238486,23.5228008 5.43395691,23.6341236 L5.54674282,23.6536545 L5.66232808,23.6604116 L5.78365229,23.6570344 C6.37683603,23.6168523 6.8413266,23.1203532 6.83952253,22.5215955 L6.83952253,22.5215955 L6.821,16.7042724 Z M25.361,3.093 L21.539,4.61627238 L21.539,11.928 C21.539,12.6183559 20.9793559,13.178 20.289,13.178 C19.6417913,13.178 19.1094661,12.6861253 19.0454536,12.0558052 L19.039,11.928 L19.039,5.61227238 L17.272,6.31727238 L17.2724,8.6906 C17.2724,9.38095594 16.7127559,9.9406 16.0224,9.9406 C15.3751913,9.9406 14.8428661,9.44872534 14.7788536,8.81840524 L14.7724,8.6906 L14.772,7.31427238 L11.424,8.65 L11.424,14.561 L25.361,20.118 L25.361,3.093 Z M8.923,9.008 L2.5,9.008 L2.5,14.205 L8.923,14.205 L8.923,9.008 Z" id="Combined-Shape" fill="#2F3B4A"></path>
                        <path d="M37.9407,10.356 C38.6310559,10.356 39.1907,10.9156441 39.1907,11.606 C39.1907,12.2532087 38.6988253,12.7855339 38.0685052,12.8495464 L37.9407,12.856 L33.5107,12.856 C32.8203441,12.856 32.2607,12.2963559 32.2607,11.606 C32.2607,10.9587913 32.7525747,10.4264661 33.3828948,10.3624536 L33.5107,10.356 L37.9407,10.356 Z" id="Stroke-5" fill="#0086D6"></path>
                        <path d="M36.8771992,2.51259302 C37.5012848,2.2174516 38.2464656,2.48411356 38.541607,3.10819918 C38.8183021,3.69327945 38.6012246,4.38479099 38.0587784,4.7121335 L37.9460008,4.77260698 L33.7550008,6.75460698 C33.1309152,7.0497484 32.3857344,6.78308644 32.090593,6.15900082 C31.8138979,5.57392055 32.0309754,4.88240901 32.5734216,4.5550665 L32.6861992,4.49459302 L36.8771992,2.51259302 Z" id="Stroke-6" fill="#0086D6"></path>
                        <path d="M32.0906972,17.0518789 C32.3675064,16.4668526 33.0397967,16.1960453 33.636935,16.4077689 L33.7552211,16.4565972 L37.9462211,18.4395972 C38.5702492,18.7348603 38.8367659,19.4800931 38.5415028,20.1041211 C38.2646936,20.6891474 37.5924033,20.9599547 36.995265,20.7482311 L36.8769789,20.6994028 L32.6859789,18.7164028 C32.0619508,18.4211397 31.7954341,17.6759069 32.0906972,17.0518789 Z" id="Stroke-7" fill="#0086D6"></path>
                    </g>
                </g>
            </g>
        </g>
    </g>
</svg>