<svg xmlns="http://www.w3.org/2000/svg" xmlns:xlink="http://www.w3.org/1999/xlink" width="44" height="29" viewBox="0 0 44 29">
    <defs>
        <path id="20p8elfv9b" d="M0 0.434L37.817 0.434 37.817 25.588 0 25.588z"/>
        <path id="0lkxzxqokd" d="M0.067 0.211L15.84 0.211 15.84 15.499 0.067 15.499z"/>
        <filter id="7dhhv32nra">
            <feColorMatrix in="SourceGraphic" values="0 0 0 0 0.000000 0 0 0 0 0.525490 0 0 0 0 0.839216 0 0 0 1.000000 0"/>
        </filter>
    </defs>
    <g fill="none" fill-rule="evenodd">
        <g>
            <g>
                <g filter="url(#7dhhv32nra)" transform="translate(-266 -150) translate(26 126) translate(240 24)">
                    <g>
                        <g>
                            <g transform="translate(0 .643) translate(0 2.559)">
                                <mask id="ao945uwibc" fill="#fff">
                                    <use xlink:href="#20p8elfv9b"/>
                                </mask>
                                <path fill="#FFF" d="M35.958 16.846l-.233 1.233c-.976 5.195-3.562 6.178-8.304 6.246-2.355.033-5.75.03-8.477.025l-2.199-.001c-7.994 0-12.871-5.136-15.349-16.161-.32-1.421-.008-2.568.952-3.507 2.308-2.26 7.976-2.986 14.005-2.986 3.917 0 7.978.307 11.374.696.15-.407.324-.805.532-1.182C19.747.184 5.87-.524 1.442 3.811.173 5.053-.262 6.615.15 8.451c2.591 11.528 8.02 17.133 16.595 17.133l2.198.001c.861.002 1.79.003 2.731.003 2.043 0 4.147-.005 5.765-.028 5.193-.073 8.418-1.285 9.54-7.259l.233-1.23c.217-1.141.424-2.24.605-3.298-.431.081-.876.125-1.326.143-.158.92-.335 1.89-.533 2.93" mask="url(#ao945uwibc)"/>
                            </g>
                            <g transform="translate(0 .643) translate(28.16)">
                                <mask id="8gp4h4ol8e" fill="#fff">
                                    <use xlink:href="#0lkxzxqokd"/>
                                </mask>
                                <path fill="#FFF" d="M7.954 1.446c-3.646 0-6.613 2.875-6.613 6.409 0 3.533 2.967 6.408 6.613 6.408 3.645 0 6.612-2.875 6.612-6.408 0-3.534-2.967-6.41-6.612-6.41m0 14.054c-4.35 0-7.887-3.43-7.887-7.644C.067 3.639 3.605.21 7.954.21c4.348 0 7.886 3.428 7.886 7.644 0 4.215-3.538 7.644-7.886 7.644" mask="url(#8gp4h4ol8e)"/>
                            </g>
                        </g>
                        <text fill="#FFF" font-family="AkhandSoft-Bold, Akhand Soft" font-size="10.863" font-weight="bold">
                            <tspan x="34.759" y="12.082">1</tspan>
                        </text>
                    </g>
                </g>
            </g>
        </g>
    </g>
</svg>
