<svg xmlns="http://www.w3.org/2000/svg" xmlns:xlink="http://www.w3.org/1999/xlink" width="51" height="50" viewBox="0 0 51 50">
    <defs>
        <path id="lel1s27pua" d="M0 0.031L2.904 0.031 2.904 2.928 0 2.928z"/>
        <path id="jovhbny7kc" d="M0.026 0L3.359 0 3.359 3.325 0.026 3.325z"/>
    </defs>
    <g fill="none" fill-rule="evenodd">
        <g>
            <g>
                <g>
                    <g transform="translate(-416 -191) translate(35 132) translate(381.648 59) matrix(0 -1 -1 0 50 50)">
                        <circle cx="25" cy="25" r="25" fill="#FFF"/>
                        <g>
                            <g>
                                <path fill="#0086D6" d="M10.179 1.782L1.5 10.439c1.01.497 1.823 1.308 2.32 2.315l8.68-8.657-2.321-2.315z" transform="translate(18.571 18.571) translate(0 .035)"/>
                                <g transform="translate(18.571 18.571) translate(0 .035) translate(0 11.323)">
                                    <mask id="mrro30pirb" fill="#fff">
                                        <use xlink:href="#lel1s27pua"/>
                                    </mask>
                                    <path fill="#0086D6" d="M.88.03L0 2.929l2.904-.877C2.5 1.15 1.782.434.88.03" mask="url(#mrro30pirb)"/>
                                </g>
                                <g transform="translate(18.571 18.571) translate(0 .035) translate(10.926)">
                                    <mask id="6g8no7sctd" fill="#fff">
                                        <use xlink:href="#jovhbny7kc"/>
                                    </mask>
                                    <path fill="#0086D6" d="M2.88.479C2.24-.16 1.198-.16.558.479l-.533.531 2.32 2.315.533-.532c.64-.638.64-1.676 0-2.314" mask="url(#6g8no7sctd)"/>
                                </g>
                            </g>
                        </g>
                    </g>
                </g>
            </g>
        </g>
    </g>
</svg>
