<svg id="product-svg" xmlns="http://www.w3.org/2000/svg" viewBox="0 0 331 480" width="331" height="480"><style>
		tspan { white-space:pre }
		.shp0 { fill: #ff0000 } 
	</style><path id="product-shape" class="shp0" d="M157 13C157 13 150.33 13.96 147 17C143.67 20.04 135.33 26.96 134 28C132.67 29.04 131.67 31.3 127 40C122.33 48.7 114.33 65.63 113 67C111.67 68.37 107 78.3 105 87C103 95.7 97.33 117.63 97 123C96.67 128.37 93 152.3 92 160C91 167.7 89 176.63 89 187C89 197.37 88 222 88 222L89 253L91 282L96 314L102 343L110 371C110 371 117.33 388.3 119 393C120.67 397.7 129 410 129 410C129 410 134.33 416.3 138 421C141.67 425.7 147.33 429.3 150 431C152.67 432.7 157 433.3 161 434C165 434.7 165.67 435.3 170 435C174.33 434.7 171.67 435.3 177 433C182.33 430.7 177 436.3 188 427C199 417.7 193 424.3 201 414C209 403.7 205.33 412.3 213 397C220.67 381.7 227 363 227 363L232 344L235 331L237 312L240 281L243 236L243 210L243 185L241 167C241 167 239 143.63 239 144C239 144.37 236 126 236 126L229 95L222 75L214 57L208 45L201 35L196 29L188 22L182 18L174 14L165 12L157 13Z" style="fill: rgba(0, 0, 0, 0.9);"></path></svg>