<svg xmlns="http://www.w3.org/2000/svg" xmlns:xlink="http://www.w3.org/1999/xlink" width="44" height="36" viewBox="0 0 44 36"><defs><path id="ikogqvv5ba" d="M0 35.665L43.769 35.665 43.769 0 0 0z"></path></defs><g fill="none" fill-rule="evenodd"><g><g><g><g><g><g transform="translate(-899 -527) translate(818) translate(0 75) translate(0 417) translate(62 35) translate(19)"><path fill="#2F3B4A" d="M2.655 32.984h25.08V30.27c0-3.897-3.141-7.068-7.001-7.068H9.656c-3.86 0-7 3.171-7 7.068v2.713zm27.735 2.68H0v-5.393c0-5.375 4.332-9.749 9.656-9.749h11.078c5.324 0 9.656 4.374 9.656 9.749v5.394zM15.14 3.062c-3.273 0-5.936 2.689-5.936 5.994 0 3.306 2.663 5.994 5.937 5.994 3.273 0 5.937-2.688 5.937-5.994 0-3.305-2.664-5.994-5.937-5.994m0 14.67c-4.738 0-8.593-3.893-8.593-8.676S10.403.381 15.141.381c4.737 0 8.592 3.892 8.592 8.675 0 4.783-3.855 8.675-8.592 8.675"></path><mask id="mj6ihnvuhb" fill="#fff"><use xlink:href="#ikogqvv5ba"></use></mask><path fill="#0086D6" d="M31.823 14.634h10.43V1.532h-10.43v13.102zm11.188 1.532H31.065c-.42 0-.759-.343-.759-.766V.766c0-.423.34-.766.759-.766H43.01c.42 0 .758.343.758.766V15.4c0 .423-.339.766-.758.766z" mask="url(#mj6ihnvuhb)"></path><path fill="#0086D6" d="M39.425 4.816H34.65c-.209 0-.379-.171-.379-.383 0-.211.17-.383.38-.383h4.773c.209 0 .379.172.379.383 0 .212-.17.383-.38.383M39.425 8.466H34.65c-.209 0-.379-.172-.379-.383 0-.211.17-.383.38-.383h4.773c.209 0 .379.172.379.383 0 .211-.17.383-.38.383M39.425 12.115H34.65c-.209 0-.379-.171-.379-.383 0-.21.17-.383.38-.383h4.773c.209 0 .379.172.379.383 0 .212-.17.383-.38.383" mask="url(#mj6ihnvuhb)"></path></g></g></g></g></g></g></g></svg>