<svg xmlns="http://www.w3.org/2000/svg" width="21" height="20" viewBox="0 0 21 20">
    <g fill="none" fill-rule="evenodd">
        <g fill="#0086D6">
            <g>
                <g>
                    <g>
                        <g>
                            <g>
                                <g>
                                    <path d="M19.26 13.952c.408 0 .74.331.74.74v4.567c0 .41-.332.741-.74.741h-4.567c-.41 0-.74-.332-.74-.74 0-.41.33-.741.74-.741h3.826v-3.826c0-.41.331-.741.74-.741zm-18.52 0c.41 0 .742.331.742.74v3.827h3.825c.41 0 .741.331.741.74 0 .41-.332.741-.74.741H.74C.33 20 0 19.668 0 19.26v-4.567c0-.41.332-.741.74-.741zm10.014-4.707v5.658h5.657v1.508H9.246v-5.657H3.589V9.245h7.165zM8.08 11.921v4.49h-4.49v-4.49h4.49zM6.57 13.43H5.097v1.474h1.474v-1.474zm9.84-4.183v4.184h-1.508v-2.676h-1.474v2.676h-1.508V9.246h4.49zM8.08 3.589v4.49h-4.49v-4.49h4.49zm8.332 0v4.49h-4.49v-4.49h4.49zm-5.657 0v4.49H9.246v-4.49h1.508zM6.571 5.097H5.097V6.57h1.474V5.097zm8.332 0H13.43V6.57h1.473V5.097zM5.307 0c.41 0 .741.332.741.74 0 .41-.331.742-.74.742H1.48v3.825c0 .409-.331.74-.74.74-.41 0-.741-.331-.741-.74V.741C0 .33.332 0 .74 0h4.567zM19.26 0c.41 0 .741.332.741.74v4.567c0 .409-.332.74-.74.74-.41 0-.741-.331-.741-.74V1.482h-3.826c-.41 0-.74-.332-.74-.741 0-.41.33-.74.74-.74h4.566z" transform="translate(-822 -656) translate(373 631) translate(.84) translate(30 15) translate(334.258) translate(15 10) translate(69)"/>
                                </g>
                            </g>
                        </g>
                    </g>
                </g>
            </g>
        </g>
    </g>
</svg>
