<svg xmlns="http://www.w3.org/2000/svg" width="15" height="30" viewBox="0 0 15 30"><g fill="none" fill-rule="evenodd"><g><g><g><g><g><path fill="#0086D6" d="M3.814 27.138c0-.501.065-.926.195-1.276.13-.349.305-.633.525-.85.22-.218.48-.376.779-.475.298-.099.623-.148.973-.148.337 0 .658.049.963.148.305.099.567.257.788.474.221.218.396.502.525.851.13.35.195.775.195 1.276 0 .488-.065.907-.195 1.256-.13.35-.304.636-.525.86-.22.224-.483.39-.788.495-.305.105-.626.158-.963.158-.35 0-.675-.053-.973-.158-.3-.106-.559-.27-.779-.494-.22-.225-.396-.511-.525-.86-.13-.35-.195-.77-.195-1.257z" transform="translate(-913 -115) translate(818) translate(0 75) translate(73 40) translate(22)"></path><path fill="#2F3B4A" d="M4.749 21.144v-.73c0-.753.048-1.432.145-2.038.098-.607.273-1.174.526-1.702.253-.527.593-1.045 1.022-1.552.427-.508.966-1.039 1.615-1.593.623-.54 1.154-1.031 1.595-1.473.442-.442.801-.89 1.08-1.345.28-.455.487-.943.623-1.464.136-.52.205-1.13.205-1.83 0-.633-.097-1.21-.292-1.73-.195-.521-.477-.97-.847-1.346-.37-.375-.83-.665-1.381-.87-.552-.204-1.19-.306-1.918-.306-1.077 0-2.101.171-3.075.514-.972.343-1.913.739-2.821 1.187L0 1.998C1.05 1.444 2.186.973 3.405.584 4.625.194 5.864 0 7.122 0c1.207 0 2.294.168 3.26.504.967.336 1.788.821 2.462 1.454.675.633 1.194 1.408 1.557 2.324.363.917.545 1.948.545 3.096 0 .884-.088 1.671-.263 2.363-.175.693-.437 1.336-.788 1.929-.35.593-.785 1.167-1.304 1.721s-1.128 1.14-1.83 1.76c-.674.593-1.225 1.111-1.654 1.553-.427.442-.765.87-1.011 1.285-.247.416-.416.841-.506 1.277-.091.434-.137.942-.137 1.523v.355H4.75z" transform="translate(-913 -115) translate(818) translate(0 75) translate(73 40) translate(22)"></path></g></g></g></g></g></g></svg>