<svg xmlns="http://www.w3.org/2000/svg" width="33" height="22" viewBox="0 0 33 22">
    <g fill="none" fill-rule="evenodd">
        <g fill="#0086D6">
            <g>
                <g>
                    <g>
                        <g>
                            <g>
                                <path d="M25.517 14.299l-.162.897c-.683 3.775-2.493 4.49-5.812 4.538-1.648.025-4.023.022-5.932.02l-1.537-.002c-5.595 0-9.008-3.733-10.74-11.747-.224-1.032-.007-1.866.665-2.549 1.615-1.643 5.58-2.17 9.8-2.17 2.74 0 5.583.223 7.959.507.105-.297.226-.586.372-.86-5.957-.745-15.667-1.26-18.765 1.891C.477 5.727.173 6.863.46 8.196c1.813 8.38 5.611 12.454 11.613 12.454l1.537.001 1.911.002c1.43 0 2.902-.004 4.034-.02 3.634-.054 5.89-.934 6.676-5.277l.163-.895c.151-.827.296-1.627.423-2.396-.302.06-.613.091-.928.104-.11.669-.234 1.374-.373 2.13" transform="translate(-65 -565) translate(35 143) translate(0 342) translate(0 60) translate(30 20) translate(2.23 .508)"/>
                                <path d="M4.378 11.47c-.175 0-.34-.104-.412-.277-.29-.705-.56-1.453-.828-2.287-.255-.793-.2-1.514.165-2.141.57-.985 1.904-1.7 3.964-2.125.242-.048.477.107.526.35.05.242-.106.48-.347.53-1.775.366-2.942.953-3.373 1.697-.234.404-.262.866-.087 1.413.26.811.523 1.537.804 2.22.094.229-.014.491-.241.586-.056.023-.114.034-.17.034" transform="translate(-65 -565) translate(35 143) translate(0 342) translate(0 60) translate(30 20) translate(2.23 .508)"/>
                                <path fill-rule="nonzero" d="M25.626.347c-3.048 0-5.519 2.488-5.519 5.556 0 3.069 2.471 5.556 5.519 5.556 3.047 0 5.518-2.487 5.518-5.556 0-3.068-2.47-5.556-5.518-5.556zm0 .898c2.555 0 4.626 2.086 4.626 4.658 0 2.573-2.071 4.659-4.626 4.659s-4.627-2.086-4.627-4.659c0-2.572 2.072-4.658 4.627-4.658z" transform="translate(-65 -565) translate(35 143) translate(0 342) translate(0 60) translate(30 20) translate(2.23 .508)"/>
                            </g>
                            <path fill-rule="nonzero" d="M28.796 8.558c.161 0 .248-.087.248-.249v-.135c0-.161-.087-.249-.248-.249h-1.35V7.61c0-.337.04-.458.42-.708l.656-.437c.368-.243.509-.54.509-1.017v-.411c0-.653-.355-1.111-1.178-1.111-.816 0-1.17.458-1.17 1.11v.136c0 .161.087.249.247.249h.214c.16 0 .248-.088.248-.25v-.107c0-.31.12-.492.461-.492.348 0 .462.182.462.492v.31c0 .323-.054.471-.288.626l-.702.465c-.395.262-.595.545-.595 1.11v.735c0 .162.093.25.254.25h1.812z" transform="translate(-65 -565) translate(35 143) translate(0 342) translate(0 60) translate(30 20)"/>
                            <g>
                                <path d="M26.04 12.376l-.164 1.007c-.785 4.343-3.042 5.223-6.676 5.276-1.132.017-2.604.021-4.034.021-.658 0-1.308 0-1.911-.002l-1.537-.001c-6.001 0-9.8-4.074-11.612-12.454-.289-1.334.015-2.468.903-3.372C4.107-.299 15.946.067 23.305 1.245c-.147.274-.268.563-.373.86-2.377-.284-8.748-.792-11.49-.792-4.218 0-8.184.527-9.8 2.17C.973 4.166.755 5 .978 6.033c1.733 8.014 5.147 11.746 10.74 11.746l1.539.001c1.908.003 4.283.006 5.932-.019 3.318-.048 5.128-.763 5.81-4.538l.163-.897.878.05z" opacity=".2" transform="translate(-65 -565) translate(35 143) translate(0 342) translate(0 60) translate(30 20) translate(0 .059)"/>
                                <path fill-rule="nonzero" d="M23.375 12.284c.246.02.43.235.41.482-.15 1.926-.97 3.133-2.238 3.708-.67.303-1.36.392-1.974.357l-.177-.014-.074-.009c-.01 0-.019-.002-.027-.003-.243-.038-.41-.268-.372-.513.035-.228.235-.388.458-.38l.138.015c.507.044 1.105-.02 1.662-.272.967-.438 1.59-1.356 1.715-2.959.018-.23.204-.405.427-.413h.052z" transform="translate(-65 -565) translate(35 143) translate(0 342) translate(0 60) translate(30 20) translate(0 .059)"/>
                            </g>
                        </g>
                    </g>
                </g>
            </g>
        </g>
    </g>
</svg>
