<svg xmlns="http://www.w3.org/2000/svg" xmlns:xlink="http://www.w3.org/1999/xlink" width="34" height="34" viewBox="0 0 34 34"><defs><path id="tybe4adsta" d="M0 0L33.998 0 33.998 34 0 34z"></path></defs><g fill="none" fill-rule="evenodd"><g><g><g><g><g><g><g transform="translate(-904 -666) translate(818) translate(0 75) translate(0 555) translate(72 36) translate(14)"><mask id="whd1y0ak4b" fill="#fff"><use xlink:href="#tybe4adsta"></use></mask><path fill="#2F3B4A" d="M15.778 31.481h2.441l.011-.03c.593-1.761 1.104-3.283 3.063-4.099 1.946-.806 3.38-.093 5.04.731l.042.02 1.724-1.724-.013-.028c-.83-1.666-1.545-3.105-.736-5.061.809-1.953 2.333-2.465 4.098-3.057.01-.004.022-.008.032-.01V15.78l-.038-.013c-1.76-.592-3.28-1.104-4.09-3.054-.808-1.953-.094-3.391.734-5.057l.016-.032-1.725-1.726-.028.014c-1.666.83-3.104 1.546-5.062.734-1.953-.81-2.463-2.33-3.054-4.092l-.012-.035H15.78l-.012.034c-.592 1.76-1.104 3.282-3.054 4.093-1.95.81-3.388.096-5.052-.73l-.037-.02-1.727 1.728.018.035c.826 1.663 1.54 3.1.73 5.054-.81 1.951-2.331 2.462-4.092 3.054l-.036.013v2.44l.029.01c1.764.593 3.288 1.104 4.098 3.056.813 1.961.063 3.466-.732 5.058l-.016.032 1.725 1.726.028-.014c1.666-.83 3.105-1.545 5.063-.734 1.95.81 2.461 2.33 3.053 4.092l.012.035zM20.007 34H13.99l-.299-.837c-.114-.322-.216-.627-.313-.915-.549-1.632-.782-2.215-1.632-2.567-.853-.355-1.43-.106-2.975.661-.272.136-.558.278-.863.424l-.803.381-4.254-4.256.382-.802c.146-.308.29-.595.426-.869.767-1.538 1.013-2.113.66-2.969-.354-.85-.938-1.084-2.575-1.634-.286-.095-.589-.197-.907-.31L0 20.008v-6.017l.837-.298c.321-.114.627-.217.915-.314 1.632-.549 2.214-.782 2.568-1.632.353-.851.106-1.427-.66-2.968-.136-.273-.279-.562-.426-.87l-.38-.803 4.253-4.255.803.381c.309.147.599.291.872.426 1.541.765 2.119 1.013 2.967.66.85-.353 1.083-.935 1.632-2.569.097-.288.2-.592.313-.913L13.992 0h6.017l.298.838c.114.321.216.626.313.914.549 1.632.781 2.215 1.631 2.568.852.353 1.431.106 2.976-.662.271-.136.558-.278.863-.424l.803-.381 4.254 4.254-.381.802c-.147.308-.289.595-.424.867-.767 1.545-1.015 2.123-.663 2.974.353.85.898 1.068 2.565 1.63.29.097.595.2.917.314l.837.298v5.65l-.572.572-.267.095c-.319.113-.623.215-.909.311-1.636.55-2.22.783-2.573 1.634-.353.853-.105 1.43.663 2.975.135.27.277.557.423.862l.382.803-4.253 4.254-.802-.38c-.311-.148-.602-.293-.877-.43-1.538-.763-2.113-1.009-2.953-.66-.86.358-1.093.942-1.643 2.577-.097.286-.199.589-.313.908l-.297.837z" mask="url(#whd1y0ak4b)"></path></g><path fill="#0086D6" d="M17 13.328c-2.026 0-3.673 1.647-3.673 3.672 0 2.025 1.647 3.673 3.672 3.673 2.026 0 3.673-1.648 3.673-3.673 0-2.025-1.647-3.672-3.673-3.672m0 10.493c-3.76 0-6.82-3.06-6.82-6.82 0-3.762 3.06-6.821 6.82-6.821 3.762 0 6.821 3.059 6.821 6.82s-3.06 6.821-6.82 6.821" transform="translate(-904 -666) translate(818) translate(0 75) translate(0 555) translate(72 36) translate(14)"></path></g></g></g></g></g></g></g></svg>