<svg xmlns="http://www.w3.org/2000/svg" width="12" height="12" viewBox="0 0 12 12">
    <defs>
        <filter id="506beav4ha">
            <feColorMatrix in="SourceGraphic" values="0 0 0 0 0.000000 0 0 0 0 0.525490 0 0 0 0 0.839216 0 0 0 1.000000 0"/>
        </filter>
    </defs>
    <g fill="none" fill-rule="evenodd">
        <g>
            <g>
                <g filter="url(#506beav4ha)" transform="translate(-95 -282) translate(35 126) translate(52 156)">
                    <g fill="#FFF">
                        <path d="M6 8.571C4.58 8.571 3.429 7.42 3.429 6 3.429 4.58 4.58 3.429 6 3.429 7.42 3.429 8.571 4.58 8.571 6 8.571 7.42 7.42 8.571 6 8.571m0-6C4.107 2.571 2.571 4.107 2.571 6c0 1.893 1.536 3.429 3.429 3.429 1.893 0 3.429-1.536 3.429-3.429 0-1.893-1.536-3.429-3.429-3.429M6 1.714c.237 0 .429-.192.429-.428V.429C6.429.192 6.237 0 6 0s-.429.192-.429.429v.857c0 .236.192.428.429.428M9.334 3.094c.114 0 .224-.044.305-.124l.604-.608c.154-.18.133-.45-.047-.605-.16-.137-.397-.137-.557 0l-.609.605c-.168.166-.17.438-.002.606.08.081.191.127.306.126M11.571 5.571h-.857c-.237 0-.428.192-.428.429s.191.429.428.429h.857c.237 0 .429-.192.429-.429s-.192-.429-.429-.429M9.639 9.03c-.18-.154-.45-.133-.605.046-.137.161-.137.398 0 .558l.605.604c.18.155.45.134.604-.046.137-.16.137-.397 0-.558l-.604-.604zM6 10.286c-.237 0-.429.191-.429.428v.857c0 .237.192.429.429.429s.429-.192.429-.429v-.857c0-.237-.192-.428-.429-.428M2.361 9.03l-.604.609c-.18.154-.2.424-.047.604.154.18.425.2.605.046.016-.014.032-.03.046-.046l.605-.604c.154-.18.133-.45-.047-.605-.16-.137-.397-.137-.558 0V9.03zM1.286 5.571H.429C.192 5.571 0 5.763 0 6s.192.429.429.429h.857c.236 0 .428-.192.428-.429s-.192-.429-.428-.429M2.361 2.97c.169.168.44.168.609 0 .168-.168.168-.44 0-.608l-.609-.605c-.18-.154-.45-.133-.604.047-.137.16-.137.397 0 .558l.604.608z" transform="translate(8)"/>
                    </g>
                </g>
            </g>
        </g>
    </g>
</svg>
