<svg xmlns="http://www.w3.org/2000/svg" viewBox="0 0 116 143" width="116" height="143">
	<defs>
		<clipPath clipPathUnits="userSpaceOnUse" id="cp1">
			<path d="M26.74 1.64L88.66 1.64L88.66 63.07L26.74 63.07L26.74 1.64Z" />
		</clipPath>
		<clipPath clipPathUnits="userSpaceOnUse" id="cp2">
			<path d="M0 80.38L115.41 80.38L115.41 141.63L0 141.63L0 80.38Z" />
		</clipPath>
	</defs>
	<style>
		tspan { white-space:pre }
		.shp0 { fill: #0386d6 } 
	</style>
	<g id="Layer">
		<g id="Layer">
			<g id="Layer">
				<g id="Layer">
					<g id="Layer">
						<g id="Layer">
							<g id="Layer">
								<g id="Clip-Path" clip-path="url(#cp1)">
									<path id="Layer" fill-rule="evenodd" class="shp0" d="M88.66 32.34C88.66 49.32 74.8 63.07 57.7 63.07C40.6 63.07 26.74 49.32 26.74 32.34C26.74 15.39 40.6 1.64 57.7 1.64C74.8 1.65 88.66 15.39 88.66 32.34" />
								</g>
							</g>
							<g id="Layer">
								<g id="Clip-Path" clip-path="url(#cp2)">
									<path id="Layer" fill-rule="evenodd" class="shp0" d="M115.41 128.05C115.41 146.16 0 146.16 0 128.05C0 100.89 25.82 80.38 57.7 80.38C89.59 80.38 115.41 100.89 115.41 128.05" />
								</g>
							</g>
						</g>
					</g>
				</g>
			</g>
		</g>
	</g>
</svg>